<?xml version="1.0" standalone="no"?>
<!DOCTYPE svg PUBLIC "-//W3C//DTD SVG 20010904//EN"
 "http://www.w3.org/TR/2001/REC-SVG-20010904/DTD/svg10.dtd">
<svg version="1.0" xmlns="http://www.w3.org/2000/svg"
 width="500.000000pt" height="500.000000pt" viewBox="0 0 500.000000 500.000000"
 preserveAspectRatio="xMidYMid meet">

<g transform="translate(0.000000,500.000000) scale(0.100000,-0.100000)"
fill="#000000" stroke="none">
<path d="M0 2500 l0 -2500 2500 0 2500 0 0 2500 0 2500 -2500 0 -2500 0 0
-2500z m2835 975 c31 -30 32 -73 5 -103 -49 -52 -130 -19 -130 52 0 69 76 101
125 51z m-281 -30 c26 -26 29 -53 8 -83 -39 -54 -150 -152 -173 -152 -32 0
-59 28 -59 63 0 24 15 44 83 108 84 80 112 93 141 64z m148 -112 c44 -39 33
-54 -255 -341 -192 -191 -279 -272 -295 -272 -28 0 -62 34 -62 62 0 16 78 101
272 295 285 285 298 295 340 256z m188 -63 c35 -35 25 -59 -62 -147 -87 -87
-114 -99 -150 -66 -37 33 -24 64 66 151 88 87 112 96 146 62z m-250 -250 c42
-42 29 -65 -107 -197 -71 -67 -135 -123 -143 -123 -31 0 -60 30 -60 63 0 27
18 49 123 154 129 129 149 141 187 103z m-425 -722 c20 -84 39 -161 41 -170 5
-15 -2 -18 -44 -18 -49 0 -50 1 -56 35 l-7 35 -77 0 c-77 0 -77 0 -100 -35
-20 -32 -27 -35 -68 -35 l-45 0 97 143 c53 78 106 154 116 170 16 22 27 27 63
27 l43 0 37 -152z m436 120 l-7 -33 -106 -3 -106 -3 -4 -29 -5 -30 95 0 c93 0
94 0 88 -22 -3 -13 -6 -29 -6 -35 0 -10 -26 -13 -95 -13 -68 0 -97 -4 -100
-12 -2 -7 -9 -39 -15 -70 l-11 -58 -45 0 c-38 0 -45 3 -40 18 3 9 19 86 37
170 l33 152 146 0 147 0 -6 -32z m139 22 c0 -11 -58 -287 -66 -312 -6 -21 -84
-26 -84 -6 0 13 58 295 65 316 5 14 85 17 85 2z m356 -12 c-3 -13 -6 -29 -6
-35 0 -9 -19 -13 -60 -13 -54 0 -60 -2 -65 -22 -3 -13 -16 -72 -29 -133 l-22
-110 -42 -3 c-30 -2 -42 1 -42 10 0 7 11 66 25 131 14 64 25 119 25 122 0 3
-25 5 -55 5 -48 0 -55 3 -55 19 0 51 2 51 172 51 l160 0 -6 -22z m-2106 -448
c0 -5 -9 -10 -20 -10 -30 0 -27 -40 3 -41 l22 -2 -22 -4 c-16 -3 -23 -11 -23
-28 0 -17 7 -25 23 -28 16 -3 13 -5 -10 -6 l-33 -1 0 58 c0 32 3 62 7 65 10
11 53 8 53 -3z m125 -42 l24 -53 0 48 c1 26 6 47 11 47 6 0 10 -27 10 -60 0
-76 -19 -80 -49 -10 -12 28 -23 50 -26 50 -2 0 -1 -22 2 -50 4 -34 2 -50 -6
-50 -12 0 -16 111 -4 123 11 12 13 9 38 -45z m189 36 c18 -18 21 -66 6 -95 -7
-12 -21 -19 -40 -19 l-30 0 0 65 c0 62 1 65 24 65 14 0 32 -7 40 -16z m172
-100 c-7 -17 -48 -18 -64 -2 -14 14 -16 108 -2 108 6 0 10 -23 10 -50 0 -37 4
-52 16 -57 22 -8 33 14 36 72 l2 50 3 -54 c2 -29 2 -60 -1 -67z m158 100 c20
-19 20 -25 2 -50 -13 -16 -13 -22 0 -41 8 -13 10 -23 4 -23 -6 0 -16 11 -22
25 -15 33 -36 32 -41 -2 -2 -16 -5 2 -6 40 -1 65 0 67 23 67 14 0 32 -7 40
-16z m149 -56 c8 -32 12 -58 7 -58 -4 0 -10 7 -14 15 -3 8 -15 15 -26 15 -11
0 -20 -7 -20 -15 0 -8 -5 -15 -11 -15 -6 0 -8 8 -5 18 3 9 8 31 12 47 10 42
25 69 33 59 5 -5 15 -35 24 -66z m133 4 l19 -47 6 60 6 60 1 -67 c2 -83 -10
-87 -43 -15 l-23 52 -4 -55 c-4 -54 -4 -54 -6 14 -2 57 0 67 12 57 7 -6 22
-33 32 -59z m189 58 c4 -6 -7 -10 -25 -10 -31 0 -31 0 -28 -47 3 -45 4 -48 31
-46 15 1 27 -2 27 -8 0 -18 -59 -10 -70 10 -15 29 -12 77 6 95 17 18 50 21 59
6z m140 0 c4 -6 -5 -10 -19 -10 -35 0 -37 -39 -3 -41 l22 -2 -22 -4 c-35 -7
-31 -50 5 -56 25 -4 25 -4 -5 -6 l-33 -1 0 65 c0 62 1 65 24 65 14 0 28 -4 31
-10z m235 0 c0 -5 -9 -10 -20 -10 -30 0 -27 -40 3 -41 l22 -2 -22 -4 c-18 -3
-23 -11 -23 -34 0 -16 -4 -29 -10 -29 -11 0 -14 113 -3 123 10 11 53 8 53 -3z
m87 -87 c-2 -21 -4 -6 -4 32 0 39 2 55 4 38 2 -18 2 -50 0 -70z m153 87 c0 -5
-7 -10 -15 -10 -12 0 -15 -13 -15 -55 0 -34 -4 -55 -11 -55 -8 0 -9 17 -4 55
6 51 5 55 -14 55 -12 0 -21 5 -21 10 0 6 18 10 40 10 22 0 40 -4 40 -10z m115
-42 l24 -53 0 48 c1 26 6 47 11 47 6 0 10 -27 10 -60 0 -76 -19 -80 -49 -10
-12 28 -23 50 -26 50 -2 0 -1 -22 2 -50 4 -34 2 -50 -6 -50 -12 0 -16 111 -4
123 11 12 13 9 38 -45z m185 42 c0 -5 -9 -10 -20 -10 -30 0 -27 -40 3 -41 l22
-2 -22 -4 c-16 -3 -23 -11 -23 -28 0 -17 7 -25 23 -28 16 -3 13 -5 -10 -6
l-33 -1 0 58 c0 32 3 62 7 65 10 11 53 8 53 -3z m135 0 c4 -6 -5 -10 -19 -10
-34 0 -34 -27 -1 -42 20 -9 25 -18 23 -37 -2 -21 -9 -27 -35 -29 -19 -2 -33 1
-33 8 0 6 10 8 24 4 37 -9 41 21 6 46 -17 12 -30 27 -30 34 0 29 51 49 65 26z
m140 0 c4 -6 -5 -10 -19 -10 -34 0 -34 -27 -1 -42 20 -9 25 -18 23 -37 -2 -21
-9 -27 -35 -29 -19 -2 -33 1 -33 8 0 6 10 8 24 4 37 -9 41 21 6 46 -17 12 -30
27 -30 34 0 29 51 49 65 26z m226 -6 c10 -12 10 -20 1 -34 -13 -22 -2 -33 25
-24 14 6 16 4 6 -6 -8 -9 -9 -19 -2 -32 6 -12 6 -18 -1 -18 -5 0 -10 5 -10 12
0 9 -3 9 -12 0 -32 -32 -88 3 -66 41 5 10 7 25 4 34 -7 18 10 43 29 43 7 0 18
-7 26 -16z m206 -81 c-2 -21 -4 -6 -4 32 0 39 2 55 4 38 2 -18 2 -50 0 -70z
m146 25 c8 -32 12 -58 7 -58 -4 0 -10 7 -14 15 -3 8 -15 15 -26 15 -11 0 -20
-7 -20 -15 0 -8 -5 -15 -11 -15 -6 0 -8 8 -5 18 3 9 8 31 12 47 10 42 25 69
33 59 5 -5 15 -35 24 -66z m-1542 -81 c-8 -8 -11 -5 -11 9 0 27 14 41 18 19 2
-9 -1 -22 -7 -28z"/>
<path d="M2077 2307 c-15 -25 -27 -48 -27 -51 0 -3 18 -6 40 -6 l41 0 -7 38
c-12 65 -19 68 -47 19z"/>
<path d="M1302 1923 c3 -40 6 -48 23 -48 17 0 20 8 23 48 3 45 2 47 -23 47
-25 0 -26 -2 -23 -47z"/>
<path d="M1643 1973 c-7 -3 -13 -16 -13 -30 0 -20 4 -24 23 -21 13 2 23 11 25
24 3 22 -13 34 -35 27z"/>
<path d="M1796 1942 c-8 -24 -3 -37 12 -31 4 2 5 15 2 29 l-6 25 -8 -23z"/>
<path d="M3530 1955 c0 -8 7 -15 15 -15 8 0 15 7 15 15 0 8 -7 15 -15 15 -8 0
-15 -7 -15 -15z"/>
<path d="M3524 1905 c-7 -18 3 -35 21 -35 21 0 28 19 15 35 -16 19 -29 19 -36
0z"/>
<path d="M3886 1942 c-8 -24 -3 -37 12 -31 4 2 5 15 2 29 l-6 25 -8 -23z"/>
</g>
</svg>
